<svg id="b41fb62b-e789-4997-9189-430e77559ae3" data-name="Layer 1" xmlns="http://www.w3.org/2000/svg" xmlns:xlink="http://www.w3.org/1999/xlink" width="5846.3" height="5725.6" viewBox="0 0 5846.3 5725.6">
  <defs>
    <clipPath id="baf98458-0583-420f-8620-cced719b2a19" transform="translate(1269.5 -0.4)">
      <rect y="0.4" width="3839" height="5725.55" transform="translate(3839 5726.4) rotate(180)" fill="#f4f7fa"/>
    </clipPath>
  </defs>
  <g>
    <rect y="0.4" width="3839" height="5725.55" transform="translate(5108.5 5726) rotate(180)" fill="#f4f7fa"/>
    <g clip-path="url(#baf98458-0583-420f-8620-cced719b2a19)">
      <g>
        <path d="M3164.5,2319.9c-156.2-156.3-242.3-364-242.3-585s86.1-428.7,242.3-584.9,364-242.3,585-242.3,428.7,86,584.9,242.3,242.3,363.9,242.3,584.9-86,428.7-242.3,585-364,242.3-584.9,242.3S3320.8,2476.1,3164.5,2319.9Zm43-585c0,298.9,243.1,542,542,542s542-243.1,542-542-243.2-542-542-542S3207.5,1436.1,3207.5,1734.9Z" transform="translate(1269.5 -0.4)" fill="#ebeff2"/>
        <path d="M1426.8,227.5c0-125,101.7-226.7,226.7-226.7s226.7,101.7,226.7,226.7-101.7,226.7-226.7,226.7S1426.8,352.5,1426.8,227.5Zm135.1,0a91.6,91.6,0,1,0,91.6-91.6A91.7,91.7,0,0,0,1561.9,227.5Z" transform="translate(1269.5 -0.4)" fill="#ebeff2"/>
        <circle cx="2073.9" cy="605.9" r="33" transform="translate(1199.3 339.6) rotate(-9.2)" fill="#ebeff2"/>
        <circle cx="5098.6" cy="540.9" r="76.6" fill="#ebeff2"/>
        <circle cx="2808.1" cy="502.3" r="22.5" transform="translate(1736.9 2132.3) rotate(-45)" fill="#ebeff2"/>
        <path d="M2419.2,490.3a43.6,43.6,0,1,1,43.6,43.5A43.7,43.7,0,0,1,2419.2,490.3Zm6,0a37.6,37.6,0,1,0,37.6-37.6A37.6,37.6,0,0,0,2425.2,490.3Z" transform="translate(1269.5 -0.4)" fill="#ebeff2"/>
        <path d="M3720.9,1598.3A102.1,102.1,0,1,1,3823,1700.4,102.2,102.2,0,0,1,3720.9,1598.3Zm6.1,0a96.1,96.1,0,1,0,96-96.1A96.2,96.2,0,0,0,3727,1598.3Z" transform="translate(1269.5 -0.4)" fill="#ebeff2"/>
        <path d="M1038,616.4a25.5,25.5,0,1,1,25.5,25.5A25.5,25.5,0,0,1,1038,616.4Zm6,0a19.5,19.5,0,1,0,19.5-19.5A19.5,19.5,0,0,0,1044,616.4Z" transform="translate(1269.5 -0.4)" fill="#ebeff2"/>
        <g>
          <rect x="2271.4" y="1037.6" width="113" height="51.92" transform="translate(6141.8 786.4) rotate(149.2)" fill="#ebeff2"/>
          <rect x="2271.4" y="1037.6" width="113" height="51.92" transform="translate(3874.1 3607.4) rotate(-120.8)" fill="#ebeff2"/>
        </g>
        <circle cx="768.1" cy="310.5" r="9.4" transform="translate(1229.7 126.6) rotate(-9.2)" fill="#ebeff2"/>
        <circle cx="1788.5" cy="400.1" r="12.4" fill="#ebeff2"/>
        <path d="M225.7,343.2a27.8,27.8,0,1,1,27.8,27.7A27.8,27.8,0,0,1,225.7,343.2Zm6,0a21.8,21.8,0,1,0,21.8-21.8A21.8,21.8,0,0,0,231.7,343.2Z" transform="translate(1269.5 -0.4)" fill="#ebeff2"/>
        <g>
          <rect x="-38.6" y="556.3" width="78.5" height="36.07" transform="translate(1564.4 1067.1) rotate(149.2)" fill="#ebeff2"/>
          <rect x="-38.6" y="556.3" width="78.5" height="36.07" transform="translate(777 868.2) rotate(-120.8)" fill="#ebeff2"/>
        </g>
        <g>
          <rect x="2845" y="182.3" width="113" height="51.92" transform="translate(6770.8 -1097.1) rotate(149.2)" fill="#ebeff2"/>
          <rect x="2845" y="182.3" width="113" height="51.92" transform="translate(5475.9 2807.6) rotate(-120.8)" fill="#ebeff2"/>
        </g>
        <path d="M236.2,1261.4C274.9,1142.5,403.1,1077.3,522,1116s184.1,166.9,145.3,285.7-166.9,184.1-285.7,145.4S197.5,1380.2,236.2,1261.4Zm128.5,41.8a91.7,91.7,0,0,0,58.7,115.4c48,15.7,99.8-10.7,115.5-58.7a91.6,91.6,0,0,0-174.2-56.7Z" transform="translate(1269.5 -0.4)" fill="#ebeff2"/>
        <circle cx="734.4" cy="1821.5" r="33" transform="translate(45.2 1964.1) rotate(-72.2)" fill="#ebeff2"/>
        <circle cx="2423.2" cy="2303.5" r="76.6" transform="translate(350.5 2387.7) rotate(-45)" fill="#ebeff2"/>
        <circle cx="1464.5" cy="1950.3" r="22.5" transform="translate(1020.7 214.1) rotate(-7.7)" fill="#ebeff2"/>
        <path d="M1098.5,1818.5a43.5,43.5,0,1,1,27.9,54.8A43.6,43.6,0,0,1,1098.5,1818.5Zm5.7,1.8a37.6,37.6,0,1,0,47.3-24.1A37.6,37.6,0,0,0,1104.2,1820.3Z" transform="translate(1269.5 -0.4)" fill="#ebeff2"/>
        <path d="M1993.2,3275.1a102.1,102.1,0,1,1,65.5,128.7A102.2,102.2,0,0,1,1993.2,3275.1Zm5.7,1.8a96.1,96.1,0,1,0,121.1-61.6A96.1,96.1,0,0,0,1998.9,3276.9Z" transform="translate(1269.5 -0.4)" fill="#ebeff2"/>
        <path d="M-253.9,1510.7a25.5,25.5,0,0,1,32.1-16.4,25.6,25.6,0,0,1,16.4,32.2,25.6,25.6,0,0,1-32.2,16.4A25.5,25.5,0,0,1-253.9,1510.7Zm5.7,1.9a19.5,19.5,0,0,0,12.5,24.6,19.6,19.6,0,0,0,24.6-12.5,19.5,19.5,0,0,0-12.5-24.6A19.4,19.4,0,0,0-248.2,1512.6Z" transform="translate(1269.5 -0.4)" fill="#ebeff2"/>
        <g>
          <rect x="777.7" y="2309.3" width="113" height="51.92" transform="translate(3431.8 4429) rotate(167.3)" fill="#ebeff2"/>
          <rect x="777.7" y="2309.3" width="113" height="51.92" transform="translate(9.5 3662.9) rotate(-102.7)" fill="#ebeff2"/>
        </g>
        <path d="M-424.8,1133.4a9.5,9.5,0,0,0,6.1,11.9,9.5,9.5,0,0,0,11.9-6.1,9.5,9.5,0,0,0-6.1-11.9A9.5,9.5,0,0,0-424.8,1133.4Z" transform="translate(1269.5 -0.4)" fill="#ebeff2"/>
        <path d="M-692.5,1140.9a12.4,12.4,0,0,0,8,15.7,12.4,12.4,0,0,0,15.7-8,12.4,12.4,0,0,0-8-15.6A12.3,12.3,0,0,0-692.5,1140.9Z" transform="translate(1269.5 -0.4)" fill="#ebeff2"/>
        <path d="M-941.7,999.4a27.9,27.9,0,0,1,35-17.8,27.8,27.8,0,0,1,17.8,35,27.7,27.7,0,0,1-35,17.8A27.8,27.8,0,0,1-941.7,999.4Zm5.7,1.9a21.8,21.8,0,0,0,14,27.4,21.7,21.7,0,0,0,27.4-13.9,21.8,21.8,0,0,0-13.9-27.5A21.9,21.9,0,0,0-936,1001.3Z" transform="translate(1269.5 -0.4)" fill="#ebeff2"/>
        <g>
          <rect x="-1266.5" y="1131.5" width="78.5" height="36.07" transform="translate(-901.7 2540.7) rotate(167.3)" fill="#ebeff2"/>
          <rect x="-1266.5" y="1131.5" width="78.5" height="36.07" transform="translate(-1349.4 205.1) rotate(-102.7)" fill="#ebeff2"/>
        </g>
        <g>
          <rect x="1587.8" y="1673.7" width="113" height="51.92" transform="translate(4892.2 2994.9) rotate(167.3)" fill="#ebeff2"/>
          <rect x="1587.8" y="1673.7" width="113" height="51.92" transform="translate(1618.2 3677.5) rotate(-102.7)" fill="#ebeff2"/>
        </g>
        <path d="M1157.2,3031.1c-48.9-115.1,4.9-248.4,119.9-297.4s248.5,4.9,297.4,119.9-4.9,248.5-119.9,297.4S1206.2,3146.1,1157.2,3031.1Zm124.4-52.9a91.6,91.6,0,1,0,48.4-120.1A91.6,91.6,0,0,0,1281.6,2978.2Z" transform="translate(1269.5 -0.4)" fill="#ebeff2"/>
        <circle cx="2395.2" cy="3126" r="33" transform="translate(-130.2 4177.9) rotate(-68)" fill="#ebeff2"/>
        <path d="M1446,3541.1a25.5,25.5,0,1,1,33.4,13.5A25.6,25.6,0,0,1,1446,3541.1Zm5.5-2.3a19.5,19.5,0,1,0,10.3-25.6A19.5,19.5,0,0,0,1451.5,3538.8Z" transform="translate(1269.5 -0.4)" fill="#ebeff2"/>
        <g>
          <rect x="2751.5" y="3421.8" width="113" height="51.92" transform="translate(8518.2 3217.6) rotate(126.2)" fill="#ebeff2"/>
          <rect x="2751.5" y="3421.8" width="113" height="51.92" transform="translate(4307.2 7887.9) rotate(-143.8)" fill="#ebeff2"/>
        </g>
        <circle cx="3381" cy="4551.5" r="76.6" transform="translate(719 465.6) rotate(-7.3)" fill="#ebeff2"/>
        <circle cx="2360.6" cy="4601.7" r="22.5" transform="translate(955.3 174.8) rotate(-4)" fill="#ebeff2"/>
        <path d="M1972.1,4623.6a43.6,43.6,0,1,1,47.2,39.6A43.7,43.7,0,0,1,1972.1,4623.6Zm6-.5a37.5,37.5,0,1,0,34.1-40.7A37.6,37.6,0,0,0,1978.1,4623.1Z" transform="translate(1269.5 -0.4)" fill="#ebeff2"/>
        <path d="M3365.5,5613.9a102.1,102.1,0,1,1,110.6,92.8A102.2,102.2,0,0,1,3365.5,5613.9Zm6-.5a96.1,96.1,0,1,0,87.3-104.1A96.2,96.2,0,0,0,3371.5,5613.4Z" transform="translate(1269.5 -0.4)" fill="#ebeff2"/>
        <g>
          <rect x="1874.7" y="5176.7" width="113" height="51.92" transform="translate(7808.3 8295.2) rotate(144.2)" fill="#ebeff2"/>
          <rect x="1874.7" y="5176.7" width="113" height="51.92" transform="translate(107.7 9809.8) rotate(-125.8)" fill="#ebeff2"/>
        </g>
        <g>
          <rect x="1822.4" y="4152.7" width="113" height="51.92" transform="translate(7115.2 6470.8) rotate(144.2)" fill="#ebeff2"/>
          <rect x="1822.4" y="4152.7" width="113" height="51.92" transform="translate(855.9 8145) rotate(-125.8)" fill="#ebeff2"/>
        </g>
        <path d="M1216,4987.7c-156.3-156.2-242.3-364-242.3-584.9s86-428.8,242.3-585,364-242.3,584.9-242.3,428.7,86,585,242.3,242.3,364,242.3,585-86.1,428.7-242.3,584.9-364,242.3-585,242.3S1372.2,5144,1216,4987.7Zm-195.8-584.8c0,430.6,350.3,780.9,780.9,780.9s780.8-350.3,780.8-780.9S2231.6,3622,1801.1,3622,1020.2,3972.3,1020.2,4402.9Z" transform="translate(1269.5 -0.4)" fill="#ebeff2"/>
        <path d="M247.8,4684.9a102.1,102.1,0,1,1,102,102.1A102.2,102.2,0,0,1,247.8,4684.9Zm6,0a96.1,96.1,0,1,0,96-96.1A96.2,96.2,0,0,0,253.8,4684.9Z" transform="translate(1269.5 -0.4)" fill="#ebeff2"/>
        <circle cx="2096.4" cy="3390.9" r="12.4" fill="#ebeff2"/>
        <path d="M533.7,3334a27.8,27.8,0,1,1,27.8,27.7A27.8,27.8,0,0,1,533.7,3334Zm6,0a21.8,21.8,0,1,0,21.8-21.8A21.8,21.8,0,0,0,539.7,3334Z" transform="translate(1269.5 -0.4)" fill="#ebeff2"/>
        <g>
          <rect x="269.4" y="3547.1" width="78.5" height="36.07" transform="translate(3666.7 6470.4) rotate(149.2)" fill="#ebeff2"/>
          <rect x="269.4" y="3547.1" width="78.5" height="36.07" transform="matrix(-0.51, -0.86, 0.86, -0.51, -1327.59, 5653.22)" fill="#ebeff2"/>
        </g>
        <path d="M54,4501.5a25.6,25.6,0,1,1,16.4,32.2A25.6,25.6,0,0,1,54,4501.5Zm5.8,1.9a19.5,19.5,0,1,0,24.6-12.5A19.5,19.5,0,0,0,59.8,4503.4Z" transform="translate(1269.5 -0.4)" fill="#ebeff2"/>
        <path d="M-116.8,4124.2a9.5,9.5,0,0,0,6.1,11.9,9.5,9.5,0,0,0,11.9-6.1,9.5,9.5,0,0,0-6.1-11.9A9.5,9.5,0,0,0-116.8,4124.2Z" transform="translate(1269.5 -0.4)" fill="#ebeff2"/>
        <circle cx="-372.7" cy="4135.6" r="12.4" transform="matrix(0.26, -0.96, 0.96, 0.26, -2992.32, 2680.4)" fill="#ebeff2"/>
        <path d="M-633.7,3990.2a27.8,27.8,0,0,1,35-17.8,27.8,27.8,0,0,1,17.8,35,27.7,27.7,0,0,1-35,17.8A27.8,27.8,0,0,1-633.7,3990.2Zm5.7,1.9a21.8,21.8,0,0,0,14,27.4,21.7,21.7,0,0,0,27.4-13.9,21.8,21.8,0,0,0-13.9-27.5A21.9,21.9,0,0,0-628,3992.1Z" transform="translate(1269.5 -0.4)" fill="#ebeff2"/>
        <g>
          <rect x="-958.5" y="4122.3" width="78.5" height="36.07" transform="translate(365.4 8381) rotate(167.3)" fill="#ebeff2"/>
          <rect x="-958.5" y="4122.3" width="78.5" height="36.07" transform="translate(-3890.9 4155.1) rotate(-102.7)" fill="#ebeff2"/>
        </g>
        <circle cx="-503.9" cy="5235.3" r="12.4" transform="translate(-1891.8 696.1) rotate(-35.8)" fill="#ebeff2"/>
        <path d="M-283.4,5437a27.9,27.9,0,0,1-38.2,9.2,27.9,27.9,0,0,1-9.3-38.2,27.9,27.9,0,0,1,38.2-9.2A27.9,27.9,0,0,1-283.4,5437Zm-5.2-3.2a21.8,21.8,0,0,0-7.2-29.9,21.8,21.8,0,0,0-29.9,7.3,21.8,21.8,0,0,0,7.2,29.9A21.8,21.8,0,0,0-288.6,5433.8Z" transform="translate(1269.5 -0.4)" fill="#ebeff2"/>
        <g>
          <rect x="-10.2" y="5338.7" width="78.5" height="36.07" transform="translate(1326.9 -0.5) rotate(0.6)" fill="#ebeff2"/>
          <rect x="-10.2" y="5338.7" width="78.5" height="36.07" transform="translate(6655.4 5384.6) rotate(90.6)" fill="#ebeff2"/>
        </g>
        <path d="M733.9,4689.8a25.5,25.5,0,1,1,2.8-36A25.6,25.6,0,0,1,733.9,4689.8Zm-3.9-4.5a19.5,19.5,0,1,0-27.5-2.2A19.6,19.6,0,0,0,730,4685.3Z" transform="translate(1269.5 -0.4)" fill="#ebeff2"/>
        <path d="M683.3,5100.9a9.4,9.4,0,1,0-13.3-1A9.4,9.4,0,0,0,683.3,5100.9Z" transform="translate(1269.5 -0.4)" fill="#ebeff2"/>
        <path d="M915.9,5233.9a12.5,12.5,0,0,0,1.3-17.6,12.4,12.4,0,0,0-18.9,16.2A12.6,12.6,0,0,0,915.9,5233.9Z" transform="translate(1269.5 -0.4)" fill="#ebeff2"/>
        <path d="M1054.9,5484.4a27.8,27.8,0,1,1,3.1-39.2A27.7,27.7,0,0,1,1054.9,5484.4Zm-3.9-4.6a21.7,21.7,0,1,0-30.7-2.3A21.6,21.6,0,0,0,1051,5479.8Z" transform="translate(1269.5 -0.4)" fill="#ebeff2"/>
        <g>
          <rect x="1337.7" y="5486.9" width="78.5" height="36.07" transform="translate(3102.2 -151.7) rotate(18.6)" fill="#ebeff2"/>
          <rect x="1337.7" y="5486.9" width="78.5" height="36.07" transform="translate(8302.7 5960.2) rotate(108.6)" fill="#ebeff2"/>
        </g>
        <path d="M1104.7,4397.9a102.1,102.1,0,1,1,102.1,102A102.2,102.2,0,0,1,1104.7,4397.9Zm6,0a96.1,96.1,0,1,0,96.1-96.1A96.2,96.2,0,0,0,1110.7,4397.9Z" transform="translate(1269.5 -0.4)" fill="#ebeff2"/>
        <path d="M1651.7,4887.9a102.1,102.1,0,1,1,102.1,102A102.2,102.2,0,0,1,1651.7,4887.9Zm6,0a96.1,96.1,0,1,0,96.1-96.1A96.2,96.2,0,0,0,1657.7,4887.9Z" transform="translate(1269.5 -0.4)" fill="#ebeff2"/>
      </g>
    </g>
  </g>
</svg>
