<svg xmlns="http://www.w3.org/2000/svg" xmlns:xlink="http://www.w3.org/1999/xlink" width="1920" height="1080" viewBox="0 0 1920 1080">
  <defs>
    <clipPath id="bf63ca1e-ce41-413b-bc63-901f26a52913">
      <rect width="1920" height="1080" fill="none"/>
    </clipPath>
    <linearGradient id="ff008fbc-a62d-4e6f-b47c-c3f6caf3410a" x1="1158.74" y1="-124.87" x2="2173.31" y2="889.69" gradientUnits="userSpaceOnUse">
      <stop offset="0" stop-color="#f15a24"/>
      <stop offset="1" stop-color="#662d91"/>
    </linearGradient>
    <linearGradient id="e14492c1-0701-4ea3-aba6-773b85e6105a" x1="1061.22" y1="-28.9" x2="1839.7" y2="749.58" xlink:href="#ff008fbc-a62d-4e6f-b47c-c3f6caf3410a"/>
    <linearGradient id="e206654e-6f4b-4b69-9ac7-ba6f5944ae1a" x1="1460.14" y1="781.32" x2="1674.53" y2="995.72" gradientTransform="translate(-64.7 127.8) rotate(-4.5)" gradientUnits="userSpaceOnUse">
      <stop offset="0" stop-color="#f15a24"/>
      <stop offset="0.05" stop-color="#e25530"/>
      <stop offset="0.18" stop-color="#bc494e"/>
      <stop offset="0.33" stop-color="#9d3f66"/>
      <stop offset="0.47" stop-color="#853779"/>
      <stop offset="0.63" stop-color="#733186"/>
      <stop offset="0.8" stop-color="#692e8e"/>
      <stop offset="1" stop-color="#662d91"/>
    </linearGradient>
    <linearGradient id="bb24ea50-cb8b-41f0-a4bb-97ce55091f16" x1="-54.37" y1="-58.87" x2="317.37" y2="312.87" gradientUnits="userSpaceOnUse">
      <stop offset="0" stop-color="#f15a24"/>
      <stop offset="1" stop-color="#93278f"/>
    </linearGradient>
    <linearGradient id="e26a95e5-1851-4890-8ca3-8ae26fef99f3" x1="1024.52" y1="172.22" x2="1057.81" y2="205.51" gradientTransform="translate(274.3 -540.3) rotate(33.3)" gradientUnits="userSpaceOnUse">
      <stop offset="0" stop-color="#c1272d"/>
      <stop offset="0.26" stop-color="#a02944"/>
      <stop offset="0.82" stop-color="#4b2f7e"/>
      <stop offset="1" stop-color="#2e3192"/>
    </linearGradient>
  </defs>
  <g style="isolation: isolate">
    <g id="a484aa74-496f-4da1-b6eb-53ae8687f456" data-name="Layer 2">
      <g clip-path="url(#bf63ca1e-ce41-413b-bc63-901f26a52913)">
        <g>
          <path d="M1065,515c7.8-50,27.4-74.2,43-87,27.3-22.4,49.8-15.8,115.4-37.2,54.8-17.8,80.7-27.6,93.8-46.2,46.5-65.9-5.9-179.1-79.2-195C1138,128,1035.3,72,1037.6,0s890.8-42.1,890.8-42.1h46.8L1963,1100c-25.2-161.2-75.8-212.8-119-229-35.3-13.2-54.8,1.3-127-11-12.8-2.2-91.1-16.1-157-57-84-52.1-63.9-95.7-151-183.3-23.3-23.4-147.2-148-284-124.7A212.2,212.2,0,0,0,1065,515Z" fill="url(#ff008fbc-a62d-4e6f-b47c-c3f6caf3410a)"/>
          <g>
            <g>
              <path d="M928.9,659.2c9.2,4,13.9,12.4,19.7,19.7-2.2,1.2-4.7,1.1-7.1,1.5-8.1,1.6-16.5,1.4-24.4,4.4-2.3-.2-2.9,2-4.2,3.2l-.3-2c-1-3.8-4.6-3.1-7.2-4.1-8.5-3.4-18-3.7-25.7-9,1.5-2.2,3.6-2.9,6.3-3.3C900.6,667.6,915.6,666.6,928.9,659.2Z" fill="#cd605e"/>
              <path d="M879.7,672.9c7.7,5.3,17.2,5.6,25.7,9,2.6,1,6.2.3,7.2,4.1a36.3,36.3,0,0,0-13.5,6.3c-6.5,1.3-12.2,4.8-18.1,7.5a3.3,3.3,0,0,1-1.4,0c-.1-.4-.1-.8-.2-1.2-1-8.6-4.2-16.8-4.2-25.5Z" fill="#bf2c28"/>
              <path d="M777.7,690.8c10-4.4,20.5-7.6,31.4-8.4s23-2.8,33.9-7.3c1.6-.7,3.4-.4,5.1-.6l-6.7,4.7c-6.2,4.3-13.7,6.8-19,12.7h-2.6c-.6-.8-1.2-.7-1.8,0l-1.2.2Z" fill="#f79e56"/>
              <path d="M759.5,697.1c4.7-2.1,9.3-4.1,14.4-4.9l1.8.2c3.8,4.7,10.5,5.7,14.2,10.6-3.7,5.1-9.7,2.6-14.4,4.1s-8.6,2-12.7,4.1c-2.5,1.4-6.1,4-8.1,1.5s3.7-3.5,3.9-7h-7.9l6-7.5h-.1Z" fill="#f79e56"/>
              <path d="M822.4,691.9c5.3-5.9,12.8-8.4,19-12.7l6.7-4.7H850c0,8.8-.1,17.6-.1,26.5h-1.7C840,696.9,830.8,695.4,822.4,691.9Z" fill="#db5f43"/>
              <path d="M822.4,691.9c8.4,3.5,17.6,5,25.8,9.3-17.9,3.6-35.9,3.1-53.9.9,7.1-4.3,15.8-4.9,22.5-9.9l1.2-.2h4.4Z" fill="#9d354a"/>
              <path d="M879.6,699.8a3.3,3.3,0,0,0,1.4,0c5.8,5,14.4,4.4,19.8,10.2l-4.7,3.3-4.8,2.8c-7.1,1.6-12.3,6.4-17.6,10.7-.2-5.2,2-9.9,3-14.8s3.7-7,1.3-10.9Z" fill="#9b3249"/>
              <path d="M879.6,699.8l-1.6,1.3-13.3,5.1-1.7-.4c-4-10.4-8.1-20.8-12.2-31.3h1.8a192.1,192.1,0,0,0,26.8,24.2C879.5,699,879.5,699.4,879.6,699.8Z" fill="#f79e56"/>
              <path d="M879.4,698.6a192.1,192.1,0,0,1-26.8-24.2l22.6-1.3C875.2,681.8,878.4,690,879.4,698.6Z" fill="#d2523f"/>
              <path d="M816.8,692.2c-6.7,5-15.4,5.6-22.5,9.9l-4.4.9c-3.7-4.9-10.4-5.9-14.2-10.6l2-1.4v-.2Z" fill="#bf2c28"/>
              <path d="M864.7,706.2l13.3-5.1c2.4,3.9-.5,7.3-1.3,10.9s-3.2,9.6-3,14.8c-1.5,2.3-2.9,4.2-4.7.4C869,719.9,864.2,713.6,864.7,706.2Z" fill="#8a1920"/>
              <path d="M850.8,674.5c4.1,10.5,8.2,20.9,12.2,31.3l-10.5-2.9-2.6-1.8c0-8.9.1-17.7.1-26.5A1.1,1.1,0,0,1,850.8,674.5Z" fill="#8a1920"/>
              <path d="M852.5,702.9l10.5,2.9,1.7.4c-.5,7.4,4.3,13.7,4.3,21A114.4,114.4,0,0,1,852.5,702.9Z" fill="#9d354a"/>
              <path d="M756.7,698.2l-6,7.5c-4.2,3.7-9.1,5.5-16.4,5.4C741,703.4,748.7,700.7,756.7,698.2Z" fill="#e66a47"/>
              <path d="M777.7,691l-2,1.4-1.8-.2C774.8,690.8,776.2,690.7,777.7,691Z" fill="#db5f43"/>
              <path d="M759.5,697.1l-2.9,1.2Z" fill="#e66a47"/>
              <path d="M966.7,698.1l-10.3-.2c-.9-3.6-4.3-3-6.6-3.7-10.9-3.3-21.8-6.3-32.7-9.4,7.9-3,16.3-2.8,24.4-4.4,2.4-.4,4.9-.3,7.1-1.5C955.3,684.7,962.3,690.2,966.7,698.1Z" fill="#f79e56"/>
              <path d="M917.1,684.8c10.9,3.1,21.8,6.1,32.7,9.4,2.3.7,5.7.1,6.6,3.7-17.5,1.2-34.9,2.6-51.2,9.7a1.4,1.4,0,0,0-1.2-.3c2.9-6.4,5.9-12.9,8.9-19.3C914.2,686.8,914.8,684.6,917.1,684.8Z" fill="#8a1920"/>
              <path d="M912.9,688c-3,6.4-6,12.9-8.9,19.3-4.9-3.9-1.9-10.5-4.9-15a36.3,36.3,0,0,1,13.5-6.3Z" fill="#f79e56"/>
              <path d="M899.1,692.3c3,4.5,0,11.1,4.9,15a1.4,1.4,0,0,1,1.2.3l-4.4,2.4c-5.4-5.8-14-5.2-19.8-10.2C886.9,697.1,892.6,693.6,899.1,692.3Z" fill="#db5f43"/>
              <path d="M819.8,692H818C818.6,691.3,819.2,691.2,819.8,692Z" fill="#db5f43"/>
            </g>
            <g>
              <path d="M1146,932.6c-.5,15.8-5.5,30.3-13.5,43.8h-1.4q-8.4-26.5-17-53.2a20,20,0,0,0-4,8c-3.5,11-5.5,22.6-10.6,33.1-12-10.2-20.7-23.3-31.5-34.7s-17.9-21.8-28.4-31.4v-1.2c6-10.4,12.1-20.7,17.9-31.2,4.1-7.6,9.8-14.4,12.1-23,4.4-.7,5.2,3,6.6,5.7,12.2,23.3,23.6,47,36.9,69.7,1.4,2.3,3.8,3,6.1,3.9Z" fill="#9b3249"/>
              <path d="M1039.6,898.1c10.5,9.6,18.8,21.1,28.4,31.4s19.5,24.5,31.5,34.7a14.2,14.2,0,0,0,.7,2.2c-8.1,7.5-16.2,15-23.1,23.6-9.2.7-18.1-2.6-27.3-1.4l-2.6-.6c-2.4-9.9-6.5-19.2-10.7-28.5C1037.6,939,1038.6,918.6,1039.6,898.1Z" fill="#cd605e"/>
              <path d="M1095,719.3c-18.1.7-36.1,2.5-53.5,8.8,16.1-15.7,32.3-31.3,48.3-47.1,2.9-2.8,6.1-2.1,9.1-1.4,7.2,1.9,14.5,3.8,21.5,6.3,20.6,7.4,39.1,3.3,56.3-9.2l3.8-2.4v34.8a137.8,137.8,0,0,1-47.8,10.2c-10.3-13.8-23.5-24.8-35.7-36.8-3.3-3.3-3.3,1.2-3.4,3.4C1093.1,697,1096.2,708.1,1095,719.3Z" fill="#bf2c28"/>
              <path d="M978,555.3a6.9,6.9,0,0,1,6.4,2.5c1.3,1.6,3,3.3,5.2,1.1.2,3.5.6,7,.6,10.5-.5,39.4-1.1,78.8-1.5,118.2-.1,2.3-.9,4.8.7,7,2.3-.4,2.4-2.5,3.3-3.8,5.5-7.7,8.5-16.9,15.5-23.5,2,10.2,4.2,20.3,7.7,30.2a3.6,3.6,0,0,1-.4,1.1H987.2l-1.3-.2c-6-11.3-15.5-19.7-23.3-29.5a4.9,4.9,0,0,0-3.9-1.7h0l-.2-1.7c-1.9-6.1-7.4-9.4-10.5-14.6,2.9-1.4,5.6-3.3,8.7-4.2,7.2-2,8.8-5.9,4.8-12.2,4.7,2.4,7.9,2.3,8.3-4.3.3-3.1,1.7-6.2,2.5-9.3q7.7-26.4,15.1-53c.5-1.4,3.2-5.4-1.9-2.2C980.8,563.9,977.3,561.1,978,555.3Z" fill="#f79e56"/>
              <path d="M1096.6,733.9c17.2,1.6,34.3,3.3,51.6.7,9.4,6.1,15.9,15.4,24.2,22.6,2.5,2.3,4.1,5.8,8.1,6,0,.5.1,1,.1,1.6h0l-1.4,1.3c-16,4.3-31.5,10.5-47.8,13.8-3.1-1.1-5.4-3.3-7.9-5.3-8.5-6.9-16.6-14.5-26-20.3-.3.2-.6.1-1-.1C1096.6,747.4,1096.6,740.6,1096.6,733.9Z" fill="#db5f43"/>
              <path d="M985.5,565.8c5.1-3.2,2.4.8,1.9,2.2q-7.5,26.6-15.1,53c-.8,3.1-2.2,6.2-2.5,9.3-.4,6.6-3.6,6.7-8.3,4.3h0c-4.8-11.9-14.2-20.4-21.9-30.2a12.2,12.2,0,0,1-.7-12c1.6-4.1,1.1-7.7-4.8-10,4.8-.6,11,.6,5.2-6.8l4.4,1.5c2.1-.7,4.1-1.6,4.5-4.2,2.3-3.7,2.1-8,3.2-12.1a104.4,104.4,0,0,0,12.4,2.4C971,563.7,977.9,568,985.5,565.8Z" fill="#db5f43"/>
              <path d="M1008.2,667.3c-7,6.6-10,15.8-15.5,23.5-.9,1.3-1,3.4-3.3,3.8-1.6-2.2-.8-4.7-.7-7,.4-39.4,1-78.8,1.5-118.2,0-3.5-.4-7-.6-10.5h.4c3.1,2.9,2.4,7.4,4.7,10.6,1.6,6.3,2.4,12.7,6.1,18.3,1.1,3.9,4.9-.1,6.8,2.7-4.1,1.7-7.6,4.2-3.9,9.2,1.2,10.7,5.1,20.6,8,30.8,3.6,12.6,9.3,25-2,36.6Z" fill="#cd605e"/>
              <path d="M1180.5,709.1V674.3c7.6-7.3,15-14.8,20.9-23.6.2,3.3,3.1,4.2,5.2,5.8l29.6,23.1c-9.7,13.2-24.5,18-38.8,23.8C1191.9,705.6,1186.2,707.2,1180.5,709.1Z" fill="#ce6463"/>
              <path d="M1180.6,764.8c0-.6-.1-1.1-.1-1.6V727.4c19.2-7.4,37.6-16.6,56.7-26.5-.9,6-4.4,10.3-4.1,16,7.1-2.1,11.3-10.1,19.5-7.9l-70.4,55.7Z" fill="#ce6463"/>
              <path d="M1110.3,521c-1.7,9.1.7,18.3.3,27.4-.5,10.9,3.7,18.9,13,24.3a36.8,36.8,0,0,0-15.3,12c-5.2,1.2-9.7,3.9-14.4,6s-11.4,6.2-18.1,6.2c0-1.7-1.1-4,.9-4.8,12.8-4.6,14.1-16.2,17.1-27.1,2.4-8.6,4.5-17,4.4-26.1-.1-12.1-2-15.2-13.9-18.7-2.4-.7-4.8-1.1-7.3-1.7V510a63,63,0,0,1,14.6-5C1097.3,511,1105.8,513.7,1110.3,521Z" fill="#ce6463"/>
              <path d="M1236.2,679.6l-29.6-23.1c-2.1-1.6-5-2.5-5.2-5.8,6.9-11.8,16.5-21.5,24.3-33.6,3.6,8,4.3,15.7,4.9,24.2,4.4-4,6-9.4,9.4-13.4,5.5,7.2,5.1,16.7,9.3,24.4C1247.3,662.5,1244.1,672.2,1236.2,679.6Z" fill="#8a1920"/>
              <path d="M1131.4,779.8c16.3-3.3,31.8-9.5,47.8-13.8l1.4.2h0l1.7,24.1-14.2,17.1a78.4,78.4,0,0,0-10.3,17.2c-3.1-.4-3.3-3.2-4.3-5.4-4.7-10.2-9.6-20.4-14.4-30.7C1137.8,784.6,1132.7,783.9,1131.4,779.8Z" fill="#8a1920"/>
              <path d="M1009.7,667.2c11.3-11.6,5.6-24,2-36.6-2.9-10.2-6.8-20.1-8-30.8,9.2,3.8,19,6,27.9,11.1,4.2,2.4,10.4,2.2,15.6-.1.2,2.8-1.7,4.4-3.1,6.5-7.6,11.9-17.4,22.5-24,35.2v1.4c-2.8,3.7,1,5.8,2.3,8.2,3.7,6.6,8.5,12.6,11.4,19.6a7.8,7.8,0,0,1-1.6,6.6C1022.7,683.4,1016.8,674.7,1009.7,667.2Z" fill="#db5f43"/>
              <path d="M983.4,983.7c2-19.7-2-39.2-3-58.7-.5-10-1.3-19.9-1.9-29.8l16.1-9.1c2.2,32,2.6,64,3.1,96Z" fill="#dd6347"/>
              <path d="M1020.1,652.5c6.6-12.7,16.4-23.3,24-35.2,1.4-2.1,3.3-3.7,3.1-6.5l2.9-.2c16.4,3.2,32.9,3.6,49.5,4.5-2.4,7.7-8.6,10.9-15.6,13.2l-2.8,1.6h-.2c-2.6-.3-4.8.7-7.1,1.6Z" fill="#f79e56"/>
              <path d="M1146,932.6,1119.2,922c-2.3-.9-4.7-1.6-6.1-3.9,1-2.5,2.3-4.9,3.1-7.5,6.1-19.1,12.1-38.3,18.2-57.5h1.2c.5,1.5.9,3.1,1.4,4.6-2.8,5.2.5,10,1,14.9,2.2,19.2,7,37.9,8.3,57.2Z" fill="#bf2c28"/>
              <path d="M983.4,983.7l14.3-1.6a1,1,0,0,0,.9.2c1.2,19.5,5.2,38.7,4.9,58.2-3,11.2-3.5,23.2-10.3,33.2-3,1.8-6.1,1.5-5.4-2.4,1.2-6.3.9-12.7,3.7-18.9,5.4-11.9,4.1-24.8,4.1-37.4,0-4.1-3.2-1.9-4.9-1.2-6.3,2.3-12.3,5.4-20.1,4.1C978.2,1007.4,980,995.3,983.4,983.7Z" fill="#f79e56"/>
              <path d="M1182.2,764.7l70.4-55.7c6.3-.8,10.3,3.7,13.9,7.3s1,6.6-3.4,8.1a133.3,133.3,0,0,0-29.9,14.5c-5,3.2-8.6,7-10.5,12.6-.8,2.3-2.6,4.2-4,6.2Z" fill="#8a1920"/>
              <path d="M1099.6,615.1c-16.6-.9-33.1-1.3-49.5-4.5,5.5-4.7,13-5.1,19-8.9,2.4-1.5,4.8-2.8,6.7-4.8,6.7,0,12.2-3.7,18.1-6.2s9.2-4.8,14.4-6c6.1.7,1.2,7.1,4.8,9.1Z" fill="#9d354a"/>
              <path d="M1003.5,1040.5c.3-19.5-3.7-38.7-4.9-58.2l2-.2c8.1,3.4,15.1,9.2,24.1,10.6l-4,3.3c-8.5,6.9-9.5,13.2-3.4,22.8s6.4,10-1.5,18.2c-4.5,4.7-4.7,10.2-5.6,15.8-.5,3.3-.2,7-3.3,9.4C1006.2,1054.9,1006.2,1047.5,1003.5,1040.5Z" fill="#8a1920"/>
              <path d="M1135.6,853.2h-1.2c-.1-2-.3-4-.4-6l5.1-58.5c4.8,10.3,9.7,20.5,14.4,30.7,1,2.2,1.2,5,4.3,5.4-3.2,8.7-4.7,17.8-5.8,27C1146.6,852.4,1140.9,850.1,1135.6,853.2Z" fill="#9b3249"/>
              <path d="M1028,717.5c2,4.2,3.9,8.5,5.8,12.8,4,9.1,10.4,11.5,19.2,7.5,4.9-2.3,9.9-4.5,15.5-4.6-3.5,7.9-10.5,13.4-14.4,21.1-5.6,3.7-9.7,9.4-15.9,12.3-2.1-9.6-.2-19.8-4-31-3.9,7.1-6.5,13-10.2,18.1s-3.9,11.4-9.9,14.2c.5-2.4,1-4.8,1.7-7.2C1019.8,746.3,1023.9,731.9,1028,717.5Z" fill="#8a1920"/>
              <path d="M965.7,772.3c-1.4-1-1-2.6-1.1-4a4.3,4.3,0,0,1,.2-1.1c2.3-.8,2.4-3,3-4.8,6-19.2,12-38.3,18.1-57.5l1.6-.2c-.7,22.9-1.3,45.8-2,68.6-.1,3.4.3,7.1-2.8,9.6Z" fill="#f79e56"/>
              <path d="M1024.7,992.7c-9-1.4-16-7.2-24.1-10.6,8.3-7.5,18.6-11.9,27.4-18.6,2.4-1.9,4.9-4.3,8.5-4,4.2,9.3,8.3,18.6,10.7,28.5l-4.5.5C1036.3,988.3,1030.5,990.6,1024.7,992.7Z" fill="#9b3249"/>
              <path d="M1077.1,990c6.9-8.6,15-16.1,23.1-23.6,10.4,2.9,20.1,8.2,30.9,9.9h1.4c-1.1,1.9-2.1,3.8-3.1,5.7l-3,2.9c-8,5.6-17,6.8-26.4,6.2C1092.4,990.8,1084.6,992.4,1077.1,990Z" fill="#f79e56"/>
              <path d="M1095,719.3c1.2-11.2-1.9-22.3-1.4-33.4.1-2.2.1-6.7,3.4-3.4,12.2,12,25.4,23,35.7,36.8C1120.2,720.4,1107.6,719.9,1095,719.3Z" fill="#db5f43"/>
              <path d="M950,742.4c-5.3-13.4-10.6-26.8-18-39.2,0-1,.1-2,.1-3,8.1-.8,15.9,1.8,23.9,2,2.9,21.7,5.9,43.3,8.8,65a4.3,4.3,0,0,0-.2,1.1c-3.1-8.5-6.2-16.9-9.4-25.4C954,739.8,952.3,737.3,950,742.4Z" fill="#db5f43"/>
              <path d="M1054.1,754.3c3.9-7.7,10.9-13.2,14.4-21.1,9.4-3,18.7-.7,28.1.7,0,6.7,0,13.5-.1,20.2l-5.7.4Z" fill="#f79e56"/>
              <path d="M1028,717.5c-4.1,14.4-8.2,28.8-12.2,43.2-.7,2.4-1.2,4.8-1.7,7.2-2.3,1.3-.5,4.6-2.9,5.9,1.4-25.1,2.9-50.1,4.3-75.2a3.6,3.6,0,0,0,.4-1.1c5.6,0,9.5-5.5,15.3-4.7C1030.1,701,1027.2,709,1028,717.5Z" fill="#bf2c28"/>
              <path d="M977,868.2c-.6-10.5-1.1-21-1.6-31.4l11.7-3.1h1.5l6.6,51h-.5Z" fill="#db5f43"/>
              <path d="M1180.5,727.4v35.8c-4-.2-5.6-3.7-8.1-6-8.3-7.2-14.8-16.5-24.2-22.6,7.5-4.4,16.2-3.8,24.3-5.7C1175.1,728.2,1177.8,727.9,1180.5,727.4Z" fill="#bf2c28"/>
              <path d="M958.5,665.6a8.8,8.8,0,0,1,.2,1.7c-9.4,9-16.5,20.2-26.5,28.6-.2-6-2.1-11.6-3.7-17.3s-1.6-10.7.6-16Z" fill="#cd605e"/>
              <path d="M987.1,833.7l-11.7,3.1c-.7-10.4-1.3-20.8-2-31.2,2.3-6.1,5.8-11.5,9.3-16.9C987.5,803.4,987.6,818.5,987.1,833.7Z" fill="#f79e56"/>
              <path d="M932.2,695.9c10-8.4,17.1-19.6,26.5-28.6h0c.5,11.6-1.9,23.1-2.7,34.7v.2c-8-.2-15.8-2.8-23.9-2C932.1,698.8,932.1,697.3,932.2,695.9Z" fill="#f79e56"/>
              <path d="M939.6,604.3c7.7,9.8,17.1,18.3,21.9,30.2h-.7c-4.6.9-9.3,3-13.8,2.5-6.6-.7-1.6-8.3-5.3-11.3s-1.7-6.7-5.8-8.2c-2.1-.7-1-3-.3-4.6Z" fill="#f79e56"/>
              <path d="M1110.3,521c-4.5-7.3-13-10-18.6-16,11.1-4.8,22.6-7.8,34.6-10.6C1119.9,502.9,1115.1,512,1110.3,521Z" fill="#8a1920"/>
              <path d="M1146.3,929.9c-1.3-19.3-6.1-38-8.3-57.2-.5-4.9-3.8-9.7-1-14.9,4.5,10.9,8.9,21.9,13.4,32.8C1150.1,903.8,1150.3,917.1,1146.3,929.9Z" fill="#e66a47"/>
              <path d="M1020.1,652.5l53.8-21.1c2.3-.9,4.5-1.9,7.1-1.6-10.8,5.6-17.1,16.7-27.8,22.4-2.4-2.6-5.6-1.5-8.3-1.3-8.3.8-16.5,2.1-24.8,3.2v-1.6Z" fill="#cd605e"/>
              <path d="M1150.4,890.6c-4.5-10.9-8.9-21.9-13.4-32.8-.5-1.5-.9-3.1-1.4-4.6,5.3-3.1,11-.8,16.4-1.5C1151.5,864.7,1150.9,877.6,1150.4,890.6Z" fill="#8a1920"/>
              <path d="M955.3,538.2c.6-5.3,4.5-3.3,7.4-3.3s6.5,0,7.7,4.1,3.3,10.4,5,15.6c.5,2.5,3.2,5.7-2.1,6.4-9.5-4.6-15.8-11.6-17.4-22.4C955.9,538.5,955.5,538.4,955.3,538.2Z" fill="#bf2c28"/>
              <path d="M1031.2,692.8c-5.8-.8-9.7,4.7-15.3,4.7-3.5-9.9-5.7-20-7.7-30.2h1.5c7.1,7.5,13,16.2,22.5,21.1C1032.2,689.9,1032.6,691.5,1031.2,692.8Z" fill="#e66a47"/>
              <path d="M1182.2,764.7l36.5-7c-5.3,7.8-12.9,13.2-20.1,19.1-4.8-5.6-12.1-6.9-18-10.5h0v-1.5h1.6Z" fill="#dd6347"/>
              <path d="M1033.8,681.7c-2.9-7-7.7-13-11.4-19.6-1.3-2.4-5.1-4.5-2.3-8.2h0c7.2,3.7,15.1,4.8,22.7,7.3C1038.2,667.4,1037.7,675.3,1033.8,681.7Z" fill="#8a1920"/>
              <path d="M958.5,665.6l-29.4-3c.1-1.7-.9-3.3,1.9-4.7a96.1,96.1,0,0,1,17-6.9C951.1,656.2,956.6,659.5,958.5,665.6Z" fill="#8a1920"/>
              <path d="M1000.8,587.9c-3.7-5.6-4.5-12-6.1-18.3l22.5,3.2h1.2c.7,1.2,4,1.8.4,3.9C1012.7,580.3,1006.8,584.2,1000.8,587.9Z" fill="#db5f43"/>
              <path d="M1249.3,652.3c-4.2-7.7-3.8-17.2-9.3-24.4l7.6-16C1252.3,625.3,1252.3,638.7,1249.3,652.3Z" fill="#bf2c28"/>
              <path d="M977,868.2l17.7,16.5a6.1,6.1,0,0,1-.1,1.4l-16.1,9.1Z" fill="#f79e56"/>
              <path d="M1180.6,766.3c5.9,3.6,13.2,4.9,18,10.5-5.3,4.7-9.9,10.2-16.3,13.6C1181.7,782.4,1181.1,774.3,1180.6,766.3Z" fill="#d2523f"/>
              <path d="M1003.5,1040.5c2.7,7,2.7,14.4,3.4,21.7l-4.8,11.2-3.5,1.4-5.4-1.1C1000,1063.7,1000.5,1051.7,1003.5,1040.5Z" fill="#9d354a"/>
              <path d="M1042.8,661.3c-7.6-2.5-15.5-3.6-22.7-7.3,8.3-1,16.5-2.3,24.8-3.1,2.7-.2,5.9-1.3,8.3,1.3Z" fill="#9d354a"/>
              <path d="M955.3,538.2c.2.2.6.3.6.4,1.6,10.8,7.9,17.8,17.4,22.4-7.4.3-14.4-2.7-21.7-3.1C952.6,551.3,952.8,544.5,955.3,538.2Z" fill="#f79e56"/>
              <path d="M1113.1,593.8c-3.6-2,1.3-8.4-4.8-9.1a36.8,36.8,0,0,1,15.3-12c2.8,2,3.2,4.1.5,6.5C1119.5,583.4,1116.8,589,1113.1,593.8Z" fill="#8a1920"/>
              <path d="M965.7,772.3l17,10.6a27.2,27.2,0,0,1-.1,2.8L970.2,789A44.7,44.7,0,0,1,965.7,772.3Z" fill="#90242e"/>
              <path d="M1011,554.7a11.3,11.3,0,0,1,7.2-2.7c-2.4,5.6-4.7,10.9-6.9,16.2-4.2-.2-8.5,1.3-12.3-1.4,1.5-2.7,4.7-3.7,6.4-5.9S1011.9,559.1,1011,554.7Z" fill="#db5f43"/>
              <path d="M951.6,557.9c7.3.4,14.3,3.4,21.7,3.1,5.3-.7,2.6-3.9,2.1-6.4l2.6.7c-.7,5.8,2.8,8.6,7.5,10.5-7.6,2.2-14.5-2.1-21.7-2.7a104.4,104.4,0,0,1-12.4-2.4C951.5,559.8,951.5,558.8,951.6,557.9Z" fill="#9d354a"/>
              <path d="M970.2,789l12.4-3.3.3.3c-.1.9-.1,1.8-.2,2.7-3.5,5.4-7,10.8-9.3,16.9C972.4,800,971.3,794.5,970.2,789Z" fill="#bf2c28"/>
              <path d="M1018.4,572.9h-1.2l-1.4-1.9c4.3-2.9,8.7-5.8,12.9-8.8,2-1.5,3.8-2.3,5.6.3s-.6,3.3-1.9,4.6A21.8,21.8,0,0,1,1018.4,572.9Z" fill="#dd7858"/>
              <path d="M1015.8,570.9l1.4,1.9-22.5-3.2c-2.3-3.2-1.6-7.7-4.7-10.6,2.4-3.3,4.2-.1,6.2.6.5,2.6-1.6,6.2,2.8,7.2,3.8,2.7,8.1,1.2,12.3,1.4Z" fill="#9d354a"/>
              <path d="M1016.8,562.9c1.4-3.1,3-6.1,4.3-9.2s3.7-1.9,5.8-2,2.4.3,2.4,2a5,5,0,0,1-2.4,5c-3,1.7-5.9,3.6-8.8,5.4Z" fill="#d2523f"/>
              <path d="M999,566.8c-4.4-1-2.3-4.6-2.8-7.2,5.4-.3,9.8-3.7,14.8-4.9.9,4.4-3.9,3.9-5.6,6.2S1000.5,564.1,999,566.8Z" fill="#bf2c28"/>
              <path d="M1077.1,510v8.5c-3.9-.8-8.2-.6-12.3-3.7C1069,512.8,1072.8,510.8,1077.1,510Z" fill="#bf2c28"/>
              <path d="M1018.8,1049.8l-.8.5a5.6,5.6,0,0,0,.5-.8Z" fill="#f4e7e8"/>
              <path d="M1081.2,629.9l2.8-1.6Z" fill="#cd605e"/>
              <path d="M1134,847.1c.1,2,.3,4,.4,6-6.1,19.2-12.1,38.4-18.2,57.5-.8,2.6-2.1,5-3.1,7.5-13.3-22.7-24.7-46.4-36.9-69.7-1.4-2.7-2.2-6.4-6.6-5.7h.1a8.6,8.6,0,0,1-.1-1.6c3.2-1.1,3.3-4.2,4.1-6.7,4.2-14.3,7.9-28.8,12.6-42.9,3.8-11.5,5.1-23.8,11.3-34.5,4.3,5.6,5.9,12.4,8.4,18.8C1115.4,799.6,1124.7,823.4,1134,847.1Z" fill="#e66a47"/>
              <path d="M994.6,886.1a6.1,6.1,0,0,0,.1-1.4h1.1c14.3,5.1,29.1,8.6,43.8,12.2v1.2c-1,20.5-2,40.9-3.1,61.4-3.6-.3-6.1,2.1-8.5,4-8.8,6.7-19.1,11.1-27.4,18.6l-2,.2a1,1,0,0,1-.9-.2C997.2,950.1,996.8,918.1,994.6,886.1Z" fill="#bf2c28"/>
              <path d="M1039.6,896.9c-14.7-3.6-29.5-7.1-43.8-12.2,13.1-7.6,26.1-15.5,39.4-22.8,11.5-6.3,22.2-14,34.5-19.1h-.1c-2.3,8.6-8,15.4-12.1,23C1051.7,876.2,1045.6,886.5,1039.6,896.9Z" fill="#f79e56"/>
              <path d="M1131.1,976.3c-10.8-1.7-20.5-7-30.9-9.9a14.2,14.2,0,0,1-.7-2.2c5.1-10.5,7.1-22.1,10.6-33.1a20,20,0,0,1,4-8Q1122.7,949.8,1131.1,976.3Z" fill="#8a1920"/>
              <path d="M1015.5,698.6c-1.4,25.1-2.9,50.1-4.3,75.2h0c-2.9-2.1-3.2-5.6-4.1-8.6-5.7-19.3-11.2-38.6-16.7-58-.5-1.6-.1-3.7-2.9-2.5l-1.7.2c.5-2.1,1-4.1,1.4-6.2Z" fill="#db5f43"/>
              <path d="M987.2,698.7c-.4,2.1-.9,4.1-1.4,6.2l-18,57.5c-.6,1.8-.7,4-3,4.8-2.9-21.7-5.9-43.3-8.8-65V702c10-.5,20.1-.9,29.9-3.5Z" fill="#bf2c28"/>
              <path d="M985.9,698.5c-9.8,2.6-19.9,3-29.9,3.5.8-11.6,3.2-23.1,2.7-34.7a4.9,4.9,0,0,1,3.9,1.7C970.4,678.8,979.9,687.2,985.9,698.5Z" fill="#e66a47"/>
              <path d="M1097.6,757.1c-6.2,10.7-7.5,23-11.3,34.5-4.7,14.1-8.4,28.6-12.6,42.9-.8,2.5-.9,5.6-4.1,6.7h.1c0-2.3-1.4-3.5-3.2-4.6-15.1-9.6-30.3-18.9-45.1-28.8-5.2-3.5-11.7-5.5-14.8-11.7l2.9-1.7a14.7,14.7,0,0,0,2.9-.5l74.4-35.6c1.7-.8,3.8-1.5,4-3.9l5.7-.4c.4.2.7.3,1,.1S1097.6,756.2,1097.6,757.1Z" fill="#bf2c28"/>
              <path d="M1097.6,757.1c0-.9-.1-1.9-.1-2.9,9.4,5.8,17.5,13.4,26,20.3,2.5,2,4.8,4.2,7.9,5.3,1.3,4.1,6.4,4.8,7.7,8.8l-5.1,58.5c-9.3-23.7-18.6-47.5-28-71.2C1103.5,769.5,1101.9,762.7,1097.6,757.1Z" fill="#f79e56"/>
              <path d="M1180.6,764.7v1.5l-1.4-.2Z" fill="#ce6463"/>
              <path d="M1090.8,754.5c-.2,2.4-2.3,3.1-4,3.9L1012.4,794a14.7,14.7,0,0,1-2.9.5c.3-1.6,1.6-2.4,2.6-3.4,7.4-7.8,17.1-13,23.1-22.2l3-2.3c6.2-2.9,10.3-8.6,15.9-12.3Z" fill="#db5f43"/>
              <path d="M1038.2,766.6l-3,2.3c-8.2,1.5-15.6,5.7-24,6.3v-1.4h0c2.4-1.3.6-4.6,2.9-5.9,6-2.8,6.5-9.5,9.9-14.2s6.3-11,10.2-18.1C1038,746.8,1036.1,757,1038.2,766.6Z" fill="#9b3249"/>
              <path d="M1011.2,773.8v1.4c-2,2.1-4.8,2.2-7.3,3.1-6.5,2.5-13.7,3.1-19.5,7.5l-1.5.2-.3-.3a27.2,27.2,0,0,0,.1-2.8c3.1-2.5,2.7-6.2,2.8-9.6.7-22.8,1.3-45.7,2-68.6,2.8-1.2,2.4.9,2.9,2.5,5.5,19.4,11,38.7,16.7,58C1008,768.2,1008.3,771.7,1011.2,773.8Z" fill="#bf2c28"/>
              <path d="M1069.7,842.8c-12.3,5.1-23,12.8-34.5,19.1-13.3,7.3-26.3,15.2-39.4,22.8h-.6l-6.6-51c15.8,1.1,31.6,1.6,47.3,3.4,11.3,1.3,22.7,1.1,33.8,4.2h-.1A8.6,8.6,0,0,0,1069.7,842.8Z" fill="#9b3249"/>
              <path d="M1069.7,841.3c-11.1-3.1-22.5-2.9-33.8-4.2-15.7-1.8-31.5-2.3-47.3-3.4h-1.5c.5-15.2.4-30.3-4.4-45,.1-.9.1-1.8.2-2.7l1.5-.3c3.3.4,5.9,2.4,8.6,3.9,4.4,2.4,7.8,6.9,13.6,6.6,3.1,6.2,9.6,8.2,14.8,11.7,14.8,9.9,30,19.2,45.1,28.8C1068.3,837.8,1069.7,839,1069.7,841.3Z" fill="#e66a47"/>
              <path d="M1006.6,796.2c-5.8.3-9.2-4.2-13.6-6.6-2.7-1.5-5.3-3.5-8.6-3.9,5.8-4.3,13-4.9,19.5-7.4,2.5-.9,5.3-1,7.3-3.1,8.4-.6,15.8-4.8,24-6.3-6,9.2-15.7,14.4-23.1,22.2-1,1-2.3,1.8-2.6,3.4Z" fill="#f79e56"/>
            </g>
          </g>
          <path d="M1065,515c5.3-45.6,22.6-69.2,36-82,34.6-32.9,95.1-42.6,122.2-47.1,21.8-3.6,48.3-5.9,73.8-25.9,11.4-8.9,15.2-15.5,20-20.3,49.6-48.9,237.4,69.8,254,46.3,10.8-15.4-49.3-74.4-54-79-38.7-37.7-107.8-91.9-219.2-123.6a273.3,273.3,0,0,0-60-38.7c-37.6-17.9-61.5-18.5-84.8-25.7C1080.2,96.6,1025,14.2,1037.5-4.9c15.1-23,117.8,63.5,301.5,95.9,212.6,37.5,269.5-33.2,391,30,115.5,60,167,177.3,201,255,15.6,35.6,88.9,202.7,37,245-43.7,35.7-121.8-61.7-307-82-127.2-13.9-116.6,29.2-235,10-123.7-20-199.6-80.2-315.8-49.9A283.5,283.5,0,0,0,1065,515Z" fill="url(#e14492c1-0701-4ea3-aba6-773b85e6105a)"/>
          <g>
            <g>
              <rect x="1690.2" y="86.8" width="36.8" height="7.69" transform="translate(1917.6 -1607.6) rotate(94)" fill="#fff"/>
              <rect x="1690.2" y="86.8" width="36.8" height="7.69" transform="translate(10.4 -118.4) rotate(4)" fill="#fff"/>
            </g>
            <circle cx="1419" cy="308" r="17" fill="#fff"/>
            <circle cx="1602" cy="468" r="5" fill="#fff"/>
            <circle cx="1927" cy="694" r="15" fill="#fff"/>
            <circle cx="1907" cy="164" r="9" fill="#fff"/>
            <g>
              <rect x="1496.4" y="676.4" width="23.5" height="4.91" transform="translate(2290 -778.5) rotate(94)" fill="#fff"/>
              <rect x="1496.4" y="676.4" width="23.5" height="4.91" transform="translate(50.8 -103) rotate(4)" fill="#fff"/>
            </g>
            <g>
              <rect x="1252.3" y="460.1" width="23.5" height="4.91" transform="translate(1813.2 -766.3) rotate(94)" fill="#fff"/>
              <rect x="1252.3" y="460.1" width="23.5" height="4.91" transform="translate(35.2 -86.6) rotate(4)" fill="#fff"/>
            </g>
          </g>
          <g>
            <image width="414" height="557" transform="translate(1467 192)" opacity="0.75" xlink:href="Artboard%2011.png" style="mix-blend-mode: screen"/>
            <g>
              <path d="M1847.8,508.7a167.8,167.8,0,0,1-3,28.3c-2.4-.2-4.4.8-6.4,1.8l-56.2,29.1c-1.6.8-3,3.1-5,.5,1.4-6,2.9-12.1,4.1-18.1,3.4-16,9-31.5,11-47.9l1.6-2.9a79.7,79.7,0,0,1,9.6.9C1818.3,502.9,1832.7,507.9,1847.8,508.7Z" fill="#8a1920"/>
              <path d="M1777.2,568.4c2,2.6,3.4.3,5-.5l56.2-29.1c2-1,4-2,6.4-1.8l-1.2,27.3c0,2.5.1,5,.1,7.4-1.2,12.2-2,24.3-6.2,35.9-11.8-4.9-21.9-12.7-32.9-18.9-9.5-5.3-17.9-12.6-28.6-15.6v-4.5Z" fill="#9b3249"/>
              <path d="M1738.8,418.7c-.2-1-.3-2.1-.5-3.1s.7-2,1-2.9c1.9-2.7,3.6-5-1.6-6.2s-7.6-2.7-11.4-4.1c6.6-24.6,13.1-49.2,19.7-73.8,10.5,8.8,18.2,20.1,27,30.3,3.9,4.6,9.7,8.1,10.7,14.8Z" fill="#f79e56"/>
              <path d="M1864.7,415.7c-5.3,12-5.3,24.6-3.5,37.3-11-.8-21.8,1.5-32.7,1.6-3.2-.1-4.9-3.2-7.8-3.8s-6.7-6.6-12.1-5.1l-1.4-.2c0-.9-.1-1.9-.1-2.8l.3-.2c1.7-2.3,3.6-4.6,5.1-7.1q15.6-25.6,31-51.4c.6.8,1.1,1.9,1.8,2.2s1.1-1,1.2-1.8c.1-2.6.2-5.2.2-7.8C1854.1,389,1859.4,402.3,1864.7,415.7Z" fill="#9b3249"/>
              <path d="M1775.9,568.6v4.5h0c-6,12.2-12.5,24.3-18.1,36.7-7.3,16.4-16.5,31.9-22.3,48.8h0l-1.4,1.5H1732v-2.7l.4-65.2c2.1-7.8,9.6-11.7,13.2-18.4,2.4-4.4,6.6-8.4,3.3-14.1,1.9-5,6-9.1,6.2-14.9,3.8-1.3,4.2-4.9,5.2-8l1.3-.5C1764.8,547.7,1770,558.3,1775.9,568.6Z" fill="#f79e56"/>
              <path d="M1843.5,384q-15.4,25.8-31,51.4c-1.5,2.5-3.4,4.8-5.1,7.1-6.3-23.2-14.7-45.8-22.2-68.7,3.7,0,7.5-.4,11.2-.1l44.1,4.4A11.9,11.9,0,0,1,1843.5,384Z" fill="#bf2c28"/>
              <path d="M1676.9,358.5l-.3-2.5c9.5-4.9,12.9-14.8,18.5-22.9,5.6-6.5,11.5-12.8,14.9-21h0l1.6-1.5,1.6-1.4h1.1c2.1,18.1,4.6,36.1,5.9,54.2.9,12.1,3.7,24.1,3,36.4a20.1,20.1,0,0,1-8.6-2.3c-4.4-7.9-11.4-13.4-18-19.2S1686,362.5,1676.9,358.5Z" fill="#db5f43"/>
              <path d="M1785.2,373.8c7.5,22.9,15.9,45.5,22.2,68.7l-.3.2-1.1,1h-1.5v-1c-.6-.8-1-1.9-1.8-2.4-19.6-12.1-40.1-21.5-64.1-18.7l-.7-.8.9-2.2,44.9-45Z" fill="#db5f43"/>
              <path d="M1776,573.1c10.7,3,19.1,10.3,28.6,15.6,11,6.2,21.1,14,32.9,18.9-.4,4.5-1,8.9-1.3,13.4-.1,2.3-.7,2.7-3.1,2.1-6.2-1.6-12.4-5.6-19.2-1.1-.1.1-3.6-2.6-6.4-2.8-11.2-.6-22.2-3-33.1-5.6.6-13.5,1.1-27,1.6-40.5Z" fill="#bf2c28"/>
              <path d="M1817.1,338.1c7.1,10.8,14.4,21.4,19.3,33.4-2.1.9-3.9-.3-5.6-1.2-24-12.5-47.9-24.9-71.8-37.5-4.2-2.2-7.7-5.6-12.7-5.7-.1-1.2-.1-2.3,1.1-3a370.7,370.7,0,0,0,55.6,6h0c.4.9.8.9,1.4.1C1808.7,332.7,1811.9,337,1817.1,338.1Z" fill="#cd605e"/>
              <path d="M1746.3,327.1c5,.1,8.5,3.5,12.7,5.7,23.9,12.6,47.8,25,71.8,37.5,1.7.9,3.5,2.1,5.6,1.2v.2a1.7,1.7,0,0,0,1.6,1.8l2.5,4.6-44.1-4.4c-3.7-.3-7.5.1-11.2.1h-1.5c-1-6.7-6.8-10.2-10.7-14.8-8.8-10.2-16.5-21.5-27-30.3Z" fill="#e66a47"/>
              <path d="M1651.6,314.3c.3-8.2-4.6-15.3-4.7-23.3,5.7,1.3,10.4,4.6,15.5,7.2,11.7,6,22.9,12.8,35.3,17.4a1.9,1.9,0,0,0,.5,1,7.9,7.9,0,0,0-.3,1.3l-35.6,25.8-3.3-4.3C1657,330.9,1655.2,322.3,1651.6,314.3Z" fill="#f79e56"/>
              <path d="M1737.1,258.2l26.9,25.2,1.8,1.7-.2-.3,1.8,1.7v-.2c0,1.2-.5,2.8,0,3.6,5.3,7.2.8,11.5-4,16.4s-10.8,8.1-12.7,15h-4.3l-10.8-27.2A330.6,330.6,0,0,0,1737.1,258.2Z" fill="#9b3249"/>
              <path d="M1700.1,233.8l7,4.2a100.4,100.4,0,0,0,.8,13.4c.9,10.9,3.7,21.6,3.3,32.6-7.4-8.5-18.8-7.9-28.2-11.9-4.7-2-6.7-3.8-6.3-8.8s1.6-12.4-4.2-17C1681,240.6,1691.4,239.1,1700.1,233.8Z" fill="#ce6463"/>
              <path d="M1760.4,536.8c-1.1,3.1-1.5,6.7-5.3,8-4.7-10.7-12.6-19.4-18.3-29.5-1.8-3.1-4.3-1.5-6.5-.7l-23.5,9.3c-8.2,1-15.9-1.5-23.7-3.5l-1.7-1.1c-2.9-1.6-6.4-2.2-8.8-4.8,1.4-5,2.9-10,4.3-15a2.7,2.7,0,0,1,1.2-.3c16.5,4.2,32.9,9,49.9,10.9h0c1.1,1.7,2.8,1.4,4.5,1.4,6.3-.1,11.7,3.3,17.7,4.6C1751.9,523.8,1756.4,530.2,1760.4,536.8Z" fill="#8a1920"/>
              <path d="M1847.8,508.7c-15.1-.8-29.5-5.8-44.3-8.3a79.7,79.7,0,0,0-9.6-.9l11.1-27c1.9-1.7,3.7-1,5.6.1s6.3,4.7,10.6,4.7c-.1,3,2.5,3.5,4.2,4.6,7.9,5,15.9,9.8,23.9,14.7Z" fill="#bf2c28"/>
              <path d="M1700.1,233.8c-8.7,5.3-19.1,6.8-27.6,12.5l-28.4-10.9c-.6-5.7,2.1-10.8,2.9-16.3l1.7-4.4c8.2.3,16.4,1.5,23.6,5.5C1681.4,225.2,1691.9,227,1700.1,233.8Z" fill="#8a1920"/>
              <path d="M1706.8,523.9l23.5-9.3c2.2-.8,4.7-2.4,6.5.7,5.7,10.1,13.6,18.8,18.3,29.5-.2,5.8-4.3,9.9-6.2,14.9-11.8-9.7-23.6-19.6-34.3-30.6C1712.3,526.8,1710.1,524.6,1706.8,523.9Z" fill="#cd605e"/>
              <path d="M1676.9,358.5c9.1,4,13.8,12.4,19.7,19.7-2.3,1.2-4.8,1.1-7.2,1.5-8.1,1.5-16.5,1.3-24.4,4.4-2.3-.2-2.9,2-4.2,3.2l-.2-2.1c-1.1-3.7-4.7-3-7.3-4.1-8.4-3.3-17.9-3.6-25.7-8.9,1.5-2.2,3.6-2.9,6.3-3.3C1648.6,366.9,1663.5,365.9,1676.9,358.5Z" fill="#cd605e"/>
              <path d="M1684.7,704.8c-6.2-13.6-3.8-23.9,9.5-32.4,7.2-4.6,9.8-14,14.1-21.4,7.5,2.3,15.7,2.1,22.7,6.2-3.2,3.4-6.8,6.5-9.5,10.3s-7.4,8.9-14.4,7.7c-2.9-.5-4.4,1.8-4.8,4.5-3,0-3.3,2.7-4.4,4.5C1693.8,691.2,1689.9,698.4,1684.7,704.8Z" fill="#cd605e"/>
              <path d="M1711.2,284c.4-11-2.4-21.7-3.3-32.6a100.4,100.4,0,0,1-.8-13.4c10.4,2.8,17.8,10.2,25.8,16.9-2.3,1.8-2.5,4.7-3.4,7.2-4,11.6-7.9,23.2-11.8,34.9C1715.5,292.7,1713.4,288.3,1711.2,284Z" fill="#8a1920"/>
              <path d="M1776,573.1c-.5,13.5-1,27-1.6,40.5-3.7-.8-5,1.8-6.6,4.4a269.7,269.7,0,0,1-28.9,38.4c-.9,1-1.4,2.8-3.3,2.2,5.8-16.9,15-32.4,22.3-48.8C1763.5,597.4,1770,585.3,1776,573.1Z" fill="#9d354a"/>
              <path d="M1731,657.2c-7-4.1-15.2-3.9-22.7-6.2,8.4-18.3,13.1-37.9,21.8-56a14.9,14.9,0,0,1,2.3-2.8c-.1,21.7-.3,43.4-.4,65.2Z" fill="#e66a47"/>
              <path d="M1731,657.2l1,.2v2.7c-1.2,1.3-.8,2.3.6,3-3.9,4.8-7.5,9.9-11.9,14.2-13,12.6-17.4,28.2-16.8,45.7-3.4,2.8-7.6,4.9-7.3,10.3-1.7,1-3.4.7-5.1.3l.9-10.9v-.4c5.1-13.8,6.2-28.5,10-42.6.4-2.7,1.9-5,4.8-4.5,7,1.2,10.8-2.6,14.4-7.7S1727.8,660.6,1731,657.2Z" fill="#9d354a"/>
              <path d="M1697.7,315.6c-12.4-4.6-23.6-11.4-35.3-17.4-5.1-2.6-9.8-5.9-15.5-7.2,4.1-2.2,6-7.2,10.8-8.5,2.1,6.7,7,8.9,13.6,8.7s14.9-.1,22.3-.1l2.7.2a6.9,6.9,0,0,1,.2,1.3C1696.1,300.3,1699.3,307.8,1697.7,315.6Z" fill="#bf2c28"/>
              <path d="M1647,219.1c-.8,5.5-3.5,10.6-2.9,16.3l-38.8-13.1c.7-5.1-3.7-9.1-3.3-14.2l33,3.8c-.1,4.4-5.7,5.5-6.4,10.1C1635.1,221.2,1640.9,218.9,1647,219.1Z" fill="#9d354a"/>
              <path d="M1662.3,343.7l35.6-25.8c-.9,5.1-1.9,10.1-2.8,15.2-5.6,8.1-9,18-18.5,22.9-3.8,0-6.1-4.7-11.2-2.9C1663.6,353.7,1664,346.8,1662.3,343.7Z" fill="#bf2c28"/>
              <path d="M1717.7,297c3.9-11.7,7.8-23.3,11.8-34.9.9-2.5,1.1-5.4,3.4-7.2a5.5,5.5,0,0,1,4.2,3.3,330.6,330.6,0,0,1-1.6,35.9c-5.2,2.9-9.3,7.5-15.3,9.1A11.7,11.7,0,0,1,1717.7,297Z" fill="#dd6347"/>
              <path d="M1627.6,372.2c7.8,5.3,17.3,5.6,25.7,8.9,2.6,1.1,6.2.4,7.3,4.1-4.9,1.4-9.6,3.2-13.6,6.4-6.5,1.3-12.1,4.8-18,7.5h-1.5c-.1-.4-.1-.8-.2-1.2-.9-8.6-4.2-16.8-4.2-25.5Z" fill="#bf2c28"/>
              <path d="M1750.6,321.3c1.9-6.9,8.2-10.3,12.7-15s9.3-9.2,4-16.4c-.5-.8,0-2.4,0-3.6,9.6,8.4,19.8,16.3,28.5,25.8h-13.9c-2.4-1.8-4.6-.6-6.9.2l-24.2,9.1Z" fill="#8a1920"/>
              <path d="M1849.3,496.6c-8-4.9-16-9.7-23.9-14.7-1.7-1.1-4.3-1.6-4.2-4.6l37.6-3,6.5-.2c.1.8.3,1.7.4,2.5a29,29,0,0,1-2.9,1.9C1854.7,481.8,1851.6,488.9,1849.3,496.6Z" fill="#f79e56"/>
              <path d="M1525.6,390.1c10-4.4,20.6-7.6,31.4-8.4s23.1-2.8,34-7.3c1.5-.7,3.4-.4,5.1-.6l-6.7,4.6c-6.3,4.4-13.8,6.9-19.1,12.7l-2.5.2c-.7-.8-1.3-.8-1.9,0l-1.1.2Z" fill="#f79e56"/>
              <path d="M1685.8,460c3.6-7.9,11.5-11.4,17.3-17.1s10.9-6.7,15.1-11.8c2.4-2.8,6.4-2.3,10-1.9-3,6.8-9.6,10.4-14,15.9s-9.8,7.6-11.8,13.8h.1a3.4,3.4,0,0,0-3.1,1.5l-2.9,3a4.1,4.1,0,0,0-.5.9l-2.5.5C1691.7,462.1,1687.4,463.1,1685.8,460Z" fill="#f79e56"/>
              <path d="M1507.5,396.4c4.6-2.1,9.2-4.2,14.3-4.9l1.8.2c3.8,4.7,10.5,5.7,14.2,10.6-3.6,5.1-9.6,2.5-14.4,4.1s-8.6,2-12.6,4.1-6.2,4-8.2,1.5,3.7-3.5,3.9-7h-7.9l6-7.5h-.1Z" fill="#f79e56"/>
              <path d="M1702.4,458.9c2-6.2,8-9.1,11.8-13.8s11-9.1,14-15.9c3.2-2.7,5.8-6.4,9.7-8.3l.7.8c-.2,5.1,3.6,9.4,3,14.7C1729.5,445.5,1716.2,452.7,1702.4,458.9Z" fill="#db5f43"/>
              <path d="M1865.3,474.1l-6.5.2c-9.3-7.9-21-11.9-30.3-19.7,10.9-.1,21.7-2.4,32.7-1.6C1862.6,460,1863.9,467,1865.3,474.1Z" fill="#bf2c28"/>
              <path d="M1720.2,303.2c6-1.6,10.1-6.2,15.3-9.1l10.8,27.2c-3.9.2-6.9-2.4-10.3-3.6-7.4-2.5-13.7-7.7-21.7-8.6h-1.1c0-1.1-.1-2.2-.2-3.2s-.1-1.8-.1-2.6l1.4-1.6C1716.1,303.1,1717.2,306.9,1720.2,303.2Z" fill="#d2523f"/>
              <path d="M1570.3,391.1c5.3-5.8,12.8-8.3,19.1-12.7l6.7-4.6h1.8c0,8.8-.1,17.6-.1,26.4l-1.7.2C1587.9,396.2,1578.7,394.7,1570.3,391.1Z" fill="#db5f43"/>
              <path d="M1570.3,391.1c8.4,3.6,17.6,5.1,25.8,9.4-17.9,3.6-35.9,3.1-53.8.9,7-4.3,15.7-4.9,22.5-9.9l1.1-.2h1.9Z" fill="#9d354a"/>
              <path d="M1627.5,399.1h1.5c5.7,5,14.3,4.4,19.7,10.2l-4.6,3.3-4.9,2.8c-7.1,1.6-12.2,6.4-17.6,10.7-.2-5.2,2-9.9,3.1-14.9.7-3.5,3.7-6.9,1.2-10.8Z" fill="#9b3249"/>
              <path d="M1627.5,399.1l-1.6,1.3-13.3,5.1-1.6-.4-12.3-31.3h1.9a197.8,197.8,0,0,0,26.7,24.2C1627.4,398.3,1627.4,398.7,1627.5,399.1Z" fill="#f79e56"/>
              <path d="M1627.3,397.9a197.8,197.8,0,0,1-26.7-24.2l22.5-1.3C1623.1,381.1,1626.4,389.3,1627.3,397.9Z" fill="#d2523f"/>
              <path d="M1602,208.1c-.4,5.1,4,9.1,3.3,14.2-5.7-.6-11.4-.8-16.6,1.8-2.9,1.4-5.1-.3-7.6-.4-3.6,1.4-3-1.2-3.1-3.1s-5-2.7-5.8-5.8c2.7-3,7.7-1,10.4-4.4a7.4,7.4,0,0,1-1.6,4.6c-1.1,1.8.1,4,2.2,2.9,5.1-3,11.5-4.3,14.4-10.4Z" fill="#d2523f"/>
              <path d="M1702.3,679.7c-3.8,14.1-4.9,28.8-10,42.6-2.6-4.8-4.1-10.1-7.7-14.3,0-1.1.1-2.2.1-3.2,5.2-6.4,9.1-13.6,13.2-20.6C1699,682.4,1699.3,679.7,1702.3,679.7Z" fill="#f79e56"/>
              <path d="M1564.8,391.5c-6.8,5-15.5,5.6-22.5,9.9l-4.5.9c-3.7-4.9-10.4-5.9-14.2-10.6l2.1-1.4v-.2Z" fill="#bf2c28"/>
              <path d="M1781.9,312.2h13.9c7.7,5.7,11.7,15.2,20.3,20,2.6,1.4,1.3,3.9,1,6-5.2-1.1-8.4-5.4-12.7-7.9a2.3,2.3,0,0,0-1.4-.1h0C1797.3,322.6,1788.2,319,1781.9,312.2Z" fill="#9d354a"/>
              <path d="M1693.6,291.1c-7.4,0-14.9-.2-22.3.1s-11.5-2-13.6-8.7l11.6-3.6C1677.1,283.5,1686.3,285.5,1693.6,291.1Z" fill="#9d354a"/>
              <path d="M1578,220.6c.1,1.9-.5,4.5,3.1,3.1-.9,2.3-2.9,2.3-4.9,2.7-8.1,1.3-15.3,4.3-20,11.7-2.4,3.8-6.2,5.3-11.9,6.3,4.1-4.9,5.2-10.2,9.8-13.5,1.7-1.2,4.3-2.8,3-5.9h-.1c1.5.7,1.2-.5,1.3-1.2C1565.1,223.9,1571.6,222.2,1578,220.6Z" fill="#dd6347"/>
              <path d="M1678.1,499.2a2.7,2.7,0,0,0-1.2.3h-5.7c2.6-8,2.7-16.9,8.3-23.9,5,.3,6.3-6.1,11.1-6.1-2.6,8.4-9.9,15.4-7.7,25.3C1679.7,494.5,1678.3,496.2,1678.1,499.2Z" fill="#ce6463"/>
              <path d="M1612.6,405.5l13.3-5.1c2.5,3.9-.5,7.3-1.2,10.8-1.1,5-3.3,9.7-3.1,14.9-1.4,2.3-2.9,4.2-4.7.3C1616.9,419.2,1612.2,412.9,1612.6,405.5Z" fill="#8a1920"/>
              <path d="M1651.6,314.3c3.6,8,5.4,16.6,7.4,25.1a18.2,18.2,0,0,1-11.1-9.4c-2-3.5-4.1-6.7-8.5-9.3Z" fill="#9d354a"/>
              <path d="M1598.7,373.8l12.3,31.3-10.6-2.9-2.6-1.9c0-8.8.1-17.6.1-26.4A.8.8,0,0,1,1598.7,373.8Z" fill="#8a1920"/>
              <path d="M1578,220.6c-6.4,1.6-12.9,3.3-19.7,3.3-.7.1-1.7-.1-1.3,1.2h.1c-1.9-.5-3.2.9-4.8,1.5s-4.8,2.1-4.9,1.8c-2.2-3.7,1.7-4.6,3.5-5.9,6.4-4.2,14.1-5.3,21.3-7.6C1573,217.9,1577,217.7,1578,220.6Z" fill="#bf2c28"/>
              <path d="M1693.6,291.1c-7.3-5.6-16.5-7.6-24.3-12.2,11-.8,21.4.6,30.5,7.4-1.1,1.7-2.3,3.4-3.5,5Z" fill="#ce6463"/>
              <path d="M1600.4,402.2l10.6,2.9,1.6.4c-.4,7.4,4.3,13.7,4.3,20.9A113.8,113.8,0,0,1,1600.4,402.2Z" fill="#9d354a"/>
              <path d="M1647,219.1c-6.1-.2-11.9,2.1-18.4,2.9.7-4.6,6.3-5.7,6.4-10.1,4.6,1,9.4.4,13.7,2.8C1648.1,216.1,1647.5,217.6,1647,219.1Z" fill="#ce6463"/>
              <path d="M1696.3,291.3c1.2-1.6,2.4-3.3,3.5-5,3.3.9,5.8,2.5,7.2,5.7l1.6,2.1h0c-.6,4.1,2.3,6.5,4.3,9.4,0,.8.1,1.7.1,2.6l-16.5-13.4A6.9,6.9,0,0,0,1696.3,291.3Z" fill="#f79e56"/>
              <path d="M1504.6,397.5l-6,7.5c-4.2,3.7-9.1,5.5-16.4,5.4C1488.9,402.7,1496.7,399.9,1504.6,397.5Z" fill="#e66a47"/>
              <path d="M1692.4,722.7l-.9,10.9c-8.8-1.1-10.7-3.8-9.9-13.6C1685.4,720.2,1688.3,723.9,1692.4,722.7Z" fill="#f79e56"/>
              <path d="M1690.6,469.6c-4.8,0-6.1,6.4-11.1,6.1,1.5-5.5,2.8-11,6.3-15.7,1.6,3.1,5.9,2.1,7.7,4.9A4.7,4.7,0,0,1,1690.6,469.6Z" fill="#dd6347"/>
              <path d="M1597.6,207.5c-2.9,6.1-9.3,7.4-14.4,10.4-2.1,1.1-3.3-1.1-2.2-2.9a7.4,7.4,0,0,0,1.6-4.6C1587.4,208.7,1592.2,206.2,1597.6,207.5Z" fill="#dd6347"/>
              <path d="M1696.6,733.3c-.3-5.4,3.9-7.5,7.3-10.3,2,3.4,6,5.2,7.3,9.5C1706.5,735.4,1701.4,732.7,1696.6,733.3Z" fill="#8a1920"/>
              <path d="M1671.2,499.6h5.7c-1.4,5-2.9,10-4.3,15l-4.3-1.7-1.6-1.3Z" fill="#9d354a"/>
              <path d="M1642,287.3c1.7,4.6,3.5,9.1,3.7,14.9-4.3-2.2-9-2.5-9.3-8.5C1636.1,289.4,1638.8,288.4,1642,287.3Z" fill="#d2523f"/>
              <path d="M1692.4,722.7c-4.1,1.2-7-2.5-10.8-2.7a38.5,38.5,0,0,1,3-12c3.6,4.2,5.1,9.5,7.7,14.3Z" fill="#e66a47"/>
              <path d="M1646,310.6c-.2,5.6-5.6,4.5-9.6,8.8v-12C1639.9,307.7,1642.3,311,1646,310.6Z" fill="#f79e56"/>
              <path d="M1648.8,276.5c-.6,1.5-.3,4.3-3,3.9a3.8,3.8,0,0,1-3.2-4.4c.3-1.7,1-3.4,3.3-3.1S1649.2,274.1,1648.8,276.5Z" fill="#dd7858"/>
              <path d="M1646,310.6c-3.7.4-6.1-2.9-9.6-3.2C1643.4,302.9,1643.8,303,1646,310.6Z" fill="#9d354a"/>
              <path d="M1712.9,303.4c-2-2.9-4.9-5.3-4.3-9.4,2.2,2.4,5.8,3.7,5.7,7.8Z" fill="#ce6463"/>
              <path d="M1732.6,663.1c-1.4-.7-1.8-1.7-.6-3h3.5A4.6,4.6,0,0,1,1732.6,663.1Z" fill="#cd605e"/>
              <path d="M1525.7,390.3l-2.1,1.4-1.8-.2C1522.8,390.1,1524.1,389.9,1525.7,390.3Z" fill="#db5f43"/>
              <path d="M1507.5,396.4l-3,1.2Z" fill="#e66a47"/>
              <path d="M1765.8,285.1l-1.8-1.7Z" fill="#8a1920"/>
              <path d="M1735.5,660.1h-1.3l1.4-1.5a4.5,4.5,0,0,1,.3,1.1C1735.9,659.7,1735.7,659.9,1735.5,660.1Z" fill="#9d354a"/>
              <path d="M1838,373.5a1.7,1.7,0,0,1-1.6-1.8Z" fill="#cd605e"/>
              <path d="M1708.6,294.1,1707,292Z" fill="#ce6463"/>
              <path d="M1767.4,286.5l-1.8-1.7Z" fill="#8a1920"/>
              <path d="M1775.9,568.6c-5.9-10.3-11.1-20.9-14.3-32.3.8-1.2,1.5-2.5,2.2-3.7a2.6,2.6,0,0,0,1.6-3.1h0c3.2.1,4.4-2.6,6.2-4.5,7-7.5,12.3-16.4,20.7-22.6-2,16.4-7.6,31.9-11,47.9-1.2,6-2.7,12.1-4.1,18.1Z" fill="#db5f43"/>
              <path d="M1792.3,502.4c-8.4,6.2-13.7,15.1-20.7,22.6-1.8,1.9-3,4.6-6.2,4.5-.1-3.1,1.6-5.7,2.5-8.5,1.8-5.6,5.7-10.6,5-16.9,1.7-5,3.4-9.9,5.2-14.9l2.3-1.6,1.6-1.5h0c2.2,0,3.4-1.7,5-2.7,6.2-3.4,10.6-9.6,18-10.9l-11.1,27Z" fill="#f79e56"/>
              <path d="M1714.3,309.1c8,.9,14.3,6.1,21.7,8.6,3.4,1.2,6.4,3.8,10.3,3.6h4.3l.2.2-3.4,2.6c-1.2.7-1.2,1.8-1.1,3l-.3,1.5c-6.6,24.6-13.1,49.2-19.7,73.8l-3.1-2.7c.7-12.3-2.1-24.3-3-36.4C1718.9,345.2,1716.4,327.2,1714.3,309.1Z" fill="#8a1920"/>
              <path d="M1828.5,454.6c9.3,7.8,21,11.8,30.3,19.7l-37.6,3c-4.3,0-7.4-2.5-10.6-4.7-.7-9-1.3-17.9-2-26.9,5.4-1.5,7.8,4,12.1,5.1S1825.3,454.5,1828.5,454.6Z" fill="#8a1920"/>
              <path d="M1808.6,445.7c.7,9,1.3,17.9,2,26.9-1.9-1.1-3.7-1.8-5.6-.1-7.4,1.3-11.8,7.5-18,10.9-1.6,1-2.8,2.7-5,2.7,0-2.7,1.6-4.6,2.9-6.7l21.3-33.9h1Z" fill="#d2523f"/>
              <path d="M1807.2,445.5h-1c-.1-.6-.1-1.2-.2-1.8l1.1-1C1807.1,443.6,1807.2,444.6,1807.2,445.5Z" fill="#cd605e"/>
              <path d="M1714.6,397.4l-10.3-.2c-.9-3.6-4.3-3-6.6-3.7-10.8-3.3-21.8-6.3-32.7-9.4,7.9-3.1,16.3-2.9,24.4-4.4,2.4-.4,4.9-.3,7.2-1.5C1703.2,384,1710.2,389.5,1714.6,397.4Z" fill="#f79e56"/>
              <path d="M1696.5,292.6,1713,306c.1,1,.2,2.1.2,3.2l-1.6,1.4-1.6,1.5h0c-4.8-.8-7.6,3.9-11.8,4.5a1.9,1.9,0,0,1-.5-1C1699.3,307.8,1696.1,300.3,1696.5,292.6Z" fill="#8a1920"/>
              <path d="M1698.2,316.6c4.2-.6,7-5.3,11.8-4.5-3.4,8.2-9.3,14.5-14.9,21,.9-5.1,1.9-10.1,2.8-15.2A7.9,7.9,0,0,1,1698.2,316.6Z" fill="#9b3249"/>
              <path d="M1710,312.1l1.6-1.5Z" fill="#9b3249"/>
              <path d="M1806,443.7c.1.6.1,1.2.2,1.8l-21.3,33.9c-1.3,2.1-2.9,4-2.9,6.7h0l-1.6,1.5-2.3,1.6c-2.9-.7-5.9-1.2-8.7-2l-72.8-22.1-.6-.7a4.1,4.1,0,0,1,.5-.9,30.1,30.1,0,0,0,5.2-.1l102.8-19.6Z" fill="#9b3249"/>
              <path d="M1804.5,443.8l-102.8,19.6a30.1,30.1,0,0,1-5.2.1l2.9-3a2.8,2.8,0,0,0,3.1-1.5h-.1c13.8-6.2,27.1-13.4,39.2-22.5l62.9,6.4Z" fill="#cd605e"/>
              <path d="M1804.5,442.8l-62.9-6.4c.6-5.3-3.2-9.6-3-14.7,24-2.8,44.5,6.6,64.1,18.7C1803.5,440.9,1803.9,442,1804.5,442.8Z" fill="#bf2c28"/>
              <path d="M1747.4,324.1l3.4-2.6,24.2-9.1c2.3-.8,4.5-2,6.9-.2,6.3,6.8,15.4,10.4,21.1,17.9A370.7,370.7,0,0,1,1747.4,324.1Z" fill="#f79e56"/>
              <path d="M1803,330.1a2.3,2.3,0,0,1,1.4.1C1803.8,331,1803.4,331,1803,330.1Z" fill="#f79e56"/>
              <path d="M1749.3,510.2a9.3,9.3,0,0,1,.9,5.9c-6-1.3-11.4-4.7-17.7-4.6-1.1-1.7-2.9-1.4-4.5-1.4h0c-14.4-6.8-30.1-9.9-45.1-15.2-2.2-9.9,5.1-16.9,7.7-25.3a4.7,4.7,0,0,0,2.9-4.7l2.5-.5.6.7C1713,481.4,1731.4,495.5,1749.3,510.2Z" fill="#9b3249"/>
              <path d="M1682.9,494.9c15,5.3,30.7,8.4,45.1,15.2-17-1.9-33.4-6.7-49.9-10.9C1678.3,496.2,1679.7,494.5,1682.9,494.9Z" fill="#bf2c28"/>
              <path d="M1728,510.1c1.6,0,3.4-.3,4.5,1.4C1730.8,511.5,1729.1,511.8,1728,510.1Z" fill="#bf2c28"/>
              <path d="M1665,384.1c10.9,3.1,21.9,6.1,32.7,9.4,2.3.7,5.7.1,6.6,3.7-17.5,1.1-34.9,2.5-51.2,9.7a1.4,1.4,0,0,0-1.2-.3c3-6.4,5.9-12.9,8.9-19.3C1662.1,386.1,1662.7,383.9,1665,384.1Z" fill="#8a1920"/>
              <path d="M1660.8,387.3c-3,6.4-5.9,12.9-8.9,19.3-4.9-4-1.9-10.5-4.9-15,4-3.2,8.7-5,13.6-6.4A14.9,14.9,0,0,0,1660.8,387.3Z" fill="#f79e56"/>
              <path d="M1647,391.6c3,4.5,0,11,4.9,15a1.4,1.4,0,0,1,1.2.3l-4.4,2.4c-5.4-5.8-14-5.2-19.7-10.2C1634.9,396.4,1640.5,392.9,1647,391.6Z" fill="#db5f43"/>
              <path d="M1567.8,391.3h-1.9C1566.5,390.5,1567.1,390.5,1567.8,391.3Z" fill="#db5f43"/>
              <path d="M1702.5,459a2.8,2.8,0,0,1-3.1,1.5A3.4,3.4,0,0,1,1702.5,459Z" fill="#db5f43"/>
              <path d="M1557,225.1c-.4-1.3.6-1.1,1.3-1.2S1558.5,225.8,1557,225.1Z" fill="#fefdfd"/>
              <path d="M1763.8,532.6c.1-1.3.2-2.6,1.6-3.1A2.6,2.6,0,0,1,1763.8,532.6Z" fill="#f79e56"/>
              <path d="M1749.3,510.2c-17.9-14.7-36.3-28.8-52.7-45.1l72.8,22.1c2.8.8,5.8,1.3,8.7,2-1.8,5-3.5,9.9-5.2,14.9-2.8-1.4-4.5-4-5.9-6.5s-4.7-4.6-8.9-3.1C1748.1,498,1748,497.8,1749.3,510.2Z" fill="#8a1920"/>
              <path d="M1780.4,487.6l1.6-1.5Z" fill="#d2523f"/>
            </g>
          </g>
          <path d="M1670.7,975.2c-100,9.5-187.5-38-223.4-118.9a211.3,211.3,0,0,1-9.9-26.5c-2.9-9.5-2.4-19.2,5.4-26.4s17.5-5.5,26.8-2.4a33.6,33.6,0,0,1,15.1,10.2c39.3,46.2,92.9,64.9,149.5,77.8,14.2,3.3,28.7,5.8,42.9,9.4s26.9,11.7,34.2,25.5c8.8,16.6,4.1,33.1-12.2,42.6C1689.1,972.2,1677.9,974.3,1670.7,975.2Z" fill="url(#e206654e-6f4b-4b69-9ac7-ba6f5944ae1a)"/>
        </g>
        <ellipse cx="131.5" cy="127" rx="302.5" ry="216" fill="url(#bb24ea50-cb8b-41f0-a4bb-97ce55091f16)"/>
      </g>
      <g>
        <path d="M951.9,380.3l-3.1-2.8a2.5,2.5,0,0,1-.2-2.5c7.5-18.3,12.3-37.4,18.2-56.3,4.8-15.5,9.7-31,14.2-46.5.6-2,1.1-4,3.1-5.1,1.4.5,2.7.7,3.9-.5,10.9-11.4,24.8-16.6,39.7-20s30.3-1.1,45.1,3.4c8.4,1.7,10.1,6.6,6.9,14.1-1.3,3.1-1.9,6.6-2.8,9.9a13,13,0,0,1,.7,9.3c-6.4,26.3-13.3,52.5-19.9,78.8-1.6,6.4-4.6,11-12.2,8.8-29.1-8.4-57-3.9-84.5,7.3a14.2,14.2,0,0,1-5,1.3Z" fill="#efeff0"/>
        <path d="M984.1,267.1c.3,11.1-5.2,20.8-8,31-10.9,38.9-20.8,57-22.1,71.6-.1,1.1-.9,10.7-2.4,10.7s-1.1-2.2-2.5-4.8c-2.4-4.3-6.9-5.5-8.2-7.4C925,346.3,906,328.5,879.5,320c-7.9-2.5-9.5-6-6.4-14.1,10.5-28.4,20.2-57,31.2-85.2,2.3-6.3,3.3-13.2,7.7-18.6,8.3-3.5,15.1,1.3,22.4,3.6,8.9,5.8,19.2,9.4,26.9,17.1,2.2,2.2,4.7,4.2,5.9,7.3s-.8,5.7-2.4,8.1c-.4.6-1.5,1.3-.9,2s1.5-.5,2.4-.8c2.9-.8,6-3.1,8,1.4C979.5,248.8,983.4,257.3,984.1,267.1Z" fill="#fefefe"/>
        <path d="M951.6,380.4l3-2c3.5-2.2,33.7-20.9,63.5-14.9,8.8,1.8,18,1.9,26.7,4.4,6.1,1.8,8.3,1.3,9.9-5.4,7-29.6,14.7-59,22.2-88.5,2.9,2.5,6.4,3.2,10,3.9.5,9.8-4.1,18.6-5.4,28-.4,2.8-.9,5.6-1.4,8.5-3.8,12-7.2,24.2-9,36.8-2.7,6.7-4,13.8-5,21-1,3.2-2.6,6.3-3,9.6-.6,5.1-3.4,5.7-7.6,4.6-3.5,1.6-6.9.5-10.2-.5-21.7-6.4-44-7.3-66.4-7.6-3.1,0-5.7,1.5-8.6,1.6s-5.3.5-8.2.6A90.5,90.5,0,0,1,951.6,380.4Z" fill="#cac9cc"/>
        <path d="M1052,399.9c-13-4.6-25.5-11-39.6-12.1-5.4-.9-10.9-1.8-16.6-2.5s-11-1.4-16.2-1.9c-7.6-.6-6.9-.8-10.7-1.2-11.7-1.3-17.3-1.1-17.3-1.8s8.4-2.1,18.3-3c16.3-1.6,35.5-3.3,59.8,1.6a171.7,171.7,0,0,1,25.8,7.4C1054.4,390.9,1053.2,395.4,1052,399.9Z" fill="#fc2f30"/>
        <path d="M911.6,357.4c-11.5-6.8-20.7-9-27.1-9.8-8-.9-15.6-4.8-23.6-4.6-4.7,0-6.7-3.1-5.5-7.8s2.1-6.6,5-9,6.1-1.3,9.2-.4c21.2,6.5,40.2,17.2,58.2,30a16,16,0,0,1,5.5,6.6c15.6,14.3,18.6,17.7,18.3,18s-8.2-5.8-20.5-13.1C923.1,362.7,916.2,359.5,911.6,357.4Z" fill="#fc2f30"/>
        <path d="M939.3,368.2a88.6,88.6,0,0,0-7.5-5.3c-20.7-17.3-44-29.8-70.3-36.2-7.3-1.6-8.4-3.5-5.6-11.6,5.4-15.3,11.6-30.3,17-45.6,4.1-11.5,9.9-22.3,12.8-34.2a89.3,89.3,0,0,1,3.9-9.7c4.2-8.6,8.8-9.6,17.2-3.9L875,308.3c-1.2,3.4-2.7,6.8,2.6,8.3,32.4,9.3,53.9,31.8,71.5,59,.8,1.6,1.6,3.2,2.5,4.8A83.5,83.5,0,0,0,939.3,368.2Z" fill="#d5d3d7"/>
        <polygon points="977.6 219.4 960.6 242.4 984.6 235.4 977.6 219.4" fill="#585269"/>
        <path d="M966.7,234.1s4,.8,3.4,5.6l16.5-4.3,2-2c0-.9,0-6.7-4.5-10.8a14.5,14.5,0,0,0-6.5-3.2l-1,.8Z" fill="#fbb03b"/>
        <rect x="970.2" y="179.6" width="142" height="18.62" transform="translate(67.1 602.2) rotate(-33.3)" fill="url(#e26a95e5-1851-4890-8ca3-8ae26fef99f3)"/>
      </g>
    </g>
  </g>
</svg>
